<svg xmlns="http://www.w3.org/2000/svg" width="800" height="800" viewBox="0 0 800 800" role="img" aria-labelledby="title desc">
  <title id="title">kalendarz.pro stacked logo</title>
  <desc id="desc">Stacked logo for kalendarz.pro.</desc>
  <rect width="800" height="800" fill="none"/>
  <g transform="translate(230 108)">
    <rect x="12" y="52" width="316" height="286" rx="54" stroke="#003890" stroke-width="26" fill="#FFFFFF"/>
    <path d="M66 52h208c30 0 54 24 54 54v42H12v-42c0-30 24-54 54-54Z" fill="#003890"/>
    <rect x="72" y="0" width="34" height="90" rx="17" fill="#003890"/>
    <rect x="234" y="0" width="34" height="90" rx="17" fill="#003890"/>
    <rect x="63" y="130" width="48" height="48" rx="12" fill="#A4B6F8"/>
    <rect x="146" y="130" width="48" height="48" rx="12" fill="#A4B6F8"/>
    <rect x="229" y="130" width="48" height="48" rx="12" fill="#A4B6F8"/>
    <rect x="63" y="207" width="48" height="48" rx="12" fill="#A4B6F8"/>
    <rect x="146" y="207" width="48" height="48" rx="12" fill="#A4B6F8"/>
    <rect x="229" y="207" width="48" height="48" rx="12" fill="#00B978"/>
    <rect x="63" y="284" width="48" height="48" rx="12" fill="#A4B6F8"/>
    <rect x="146" y="284" width="48" height="48" rx="12" fill="#A4B6F8"/>
    <rect x="229" y="284" width="48" height="48" rx="12" fill="#A4B6F8"/>
  </g>
  <text x="89" y="614" font-family="Inter, ui-sans-serif, system-ui, -apple-system, BlinkMacSystemFont, Segoe UI, sans-serif" font-size="118" font-weight="800" letter-spacing="-5" fill="#003890">kalendarz</text>
  <text x="573" y="614" font-family="Inter, ui-sans-serif, system-ui, -apple-system, BlinkMacSystemFont, Segoe UI, sans-serif" font-size="118" font-weight="800" letter-spacing="-5" fill="#00B978">.pro</text>
</svg>